<svg width="112" height="126" viewBox="0 0 112 126" fill="none" xmlns="http://www.w3.org/2000/svg">
<path d="M16.1506 114.605C12.94 113.713 10.6181 110.925 10.3222 107.606L1.53658 9.06241C1.11933 4.38226 4.80627 0.35199 9.50497 0.35199H102.494C107.193 0.35199 110.88 4.38279 110.462 9.06321L101.669 107.588C101.372 110.908 99.0491 113.696 95.8375 114.586L58.0718 125.056C56.6724 125.444 55.1937 125.444 53.7945 125.055L16.1506 114.605Z" fill="black"/>
<path d="M56.001 116.062L92.56 105.926L101.161 9.57202H56.001V116.062Z" fill="black"/>
<path d="M56.001 50.429H74.303L75.567 36.266H56.001V22.435H90.683L90.351 26.146L86.951 64.26H56.001V50.429Z" fill="white"/>
<path d="M56.083 86.349L56.022 86.367L40.619 82.208L39.634 71.177H25.752L27.689 92.894L56.02 100.757L56.083 100.739V86.349Z" fill="#EBEBEB"/>
<path d="M73.127 63.675L71.461 82.197L56.035 86.361V100.751L84.389 92.893L84.597 90.556L87.003 63.675H73.127Z" fill="white"/>
<path d="M56.048 22.435V36.266H22.64L22.363 33.158L21.733 26.146L21.402 22.435H56.048ZM56.001 50.431V64.262H40.792L40.515 61.154L39.884 54.142L39.554 50.431H56.001Z" fill="#EBEBEB"/>
</svg>
