<svg width="128" height="128" viewBox="0 0 128 128" fill="none" xmlns="http://www.w3.org/2000/svg">
<path d="M24.3737 115.357C21.163 114.466 18.841 111.678 18.5451 108.359L9.8086 10.3715C9.39132 5.69131 13.0783 1.66101 17.777 1.66101H110.222C114.921 1.66101 118.608 5.69188 118.19 10.3723L109.445 108.341C109.148 111.661 106.825 114.449 103.613 115.339L66.0716 125.746C64.6723 126.134 63.1938 126.134 61.7946 125.745L24.3737 115.357Z" fill="black"/>
<path d="M64 116.8L100.378 106.714L108.937 10.836H64V116.8Z" fill="black"/>
<path d="M64 52.455H45.788L44.53 38.361H64V24.599H29.489L29.819 28.291L33.201 66.218H64V52.455ZM64 88.198L63.939 88.215L48.612 84.075L47.633 73.1H33.816L35.744 94.709L63.937 102.535L64 102.518V88.198Z" fill="#EBEBEB"/>
<path d="M63.952 52.455V66.218H80.899L79.302 84.067L63.952 88.21V102.529L92.167 94.709L92.374 92.384L95.608 56.151L95.943 52.455H92.235H63.952ZM63.952 24.599V38.361H97.196L97.472 35.269L98.1 28.291L98.429 24.599H63.952Z" fill="white"/>
</svg>
