<svg width="94" height="126" viewBox="0 0 94 126" fill="none" xmlns="http://www.w3.org/2000/svg">
<path d="M30.6171 97.12C30.6171 97.12 25.8501 99.894 34.0141 100.83C43.9061 101.96 48.9611 101.798 59.8591 99.738C59.8591 99.738 62.7301 101.533 66.7321 103.089C42.2931 113.559 11.4241 102.482 30.6171 97.12ZM27.6291 83.455C27.6291 83.455 22.2811 87.414 30.4521 88.26C41.0191 89.351 49.3621 89.44 63.8061 86.66C63.8061 86.66 65.7991 88.685 68.9381 89.791C39.3961 98.431 6.49205 90.471 27.6291 83.455Z" fill="black"/>
<path d="M52.802 60.271C58.827 67.206 51.222 73.441 51.222 73.441C51.222 73.441 66.511 65.55 59.491 55.664C52.932 46.449 47.904 41.872 75.126 26.084C75.126 26.085 32.395 36.754 52.802 60.271Z" fill="black"/>
<path d="M85.123 107.229C85.123 107.229 88.652 110.139 81.235 112.388C67.133 116.66 22.529 117.948 10.141 112.559C5.69004 110.621 14.04 107.934 16.667 107.367C19.406 106.774 20.97 106.882 20.97 106.882C16.017 103.395 -11.043 113.732 7.22704 116.697C57.048 124.773 98.044 113.06 85.123 107.229ZM32.912 69.294C32.912 69.294 10.226 74.683 24.879 76.642C31.067 77.47 43.397 77.28 54.89 76.316C64.28 75.527 73.703 73.842 73.703 73.842C73.703 73.842 70.395 75.261 67.999 76.895C44.957 82.956 0.455042 80.133 13.268 73.937C24.1 68.698 32.912 69.294 32.912 69.294ZM73.609 92.041C97.03 79.874 86.2 68.181 78.641 69.756C76.793 70.141 75.964 70.476 75.964 70.476C75.964 70.476 76.652 69.397 77.964 68.933C92.917 63.678 104.415 84.436 73.141 92.658C73.141 92.656 73.5 92.331 73.609 92.041Z" fill="black"/>
<path d="M59.491 0.587036C59.491 0.587036 72.459 13.563 47.188 33.51C26.922 49.516 42.567 58.64 47.181 69.069C35.35 58.396 26.672 48.999 32.493 40.254C41.041 27.42 64.722 21.195 59.491 0.587036Z" fill="black"/>
<path d="M35.214 125.021C57.69 126.458 92.214 124.221 93.031 113.585C93.031 113.585 91.46 117.617 74.454 120.816C55.268 124.428 31.6 124.007 17.567 121.69C17.567 121.691 20.442 124.071 35.214 125.021Z" fill="black"/>
</svg>
