<svg width="126" height="126" viewBox="0 0 126 126" fill="none" xmlns="http://www.w3.org/2000/svg">
<path d="M0.5 62.91V117.41C0.5 121.828 4.08172 125.41 8.5 125.41H117.5C121.918 125.41 125.5 121.828 125.5 117.41V8.41004C125.5 3.99176 121.918 0.410034 117.5 0.410034H8.5C4.08172 0.410034 0.5 3.99176 0.5 8.41003V62.91ZM101.23 57.9203C101.23 57.915 101.235 57.9112 101.24 57.9124C104.23 58.6083 106.947 60.1731 109.05 62.41C109.715 63.1025 110.33 63.8401 110.892 64.6171C111.711 65.7514 111.489 66.8813 110.337 67.6766C108.474 68.9636 105.479 70.9459 103.36 72.26C103.24 72.34 102.76 71.82 102.23 71.03C101.629 69.9937 100.776 69.1264 99.7496 68.5091C98.7231 67.8918 97.557 67.5447 96.36 67.5C92.57 67.24 90.13 69.23 90.15 72.5C90.1187 73.3142 90.3051 74.1219 90.69 74.84C91.52 76.57 93.07 77.6 97.93 79.7C106.88 83.55 110.71 86.09 113.09 89.7C115.75 93.7 116.34 100.16 114.54 104.94C112.54 110.14 107.64 113.67 100.71 114.84C97.5448 115.203 94.3468 115.169 91.19 114.74C86.3516 113.942 81.8948 111.619 78.47 108.11C77.7321 107.295 76.5453 105.64 75.8266 104.495C75.3483 103.734 75.5774 102.985 76.37 102.56V102.56L81 100L83.4309 98.5916C84.0836 98.2134 84.9177 98.405 85.34 99.03V99.03C86.6057 100.841 88.2166 102.383 90.08 103.57C94.08 105.67 99.54 105.38 102.24 102.95C103.147 102.06 103.712 100.879 103.838 99.615C103.964 98.3505 103.643 97.0819 102.93 96.03C101.93 94.64 99.93 93.47 94.34 91.03C87.89 88.25 85.11 86.53 82.57 83.79C80.9843 81.9819 79.8136 79.8487 79.14 77.54C78.6375 74.9025 78.5633 72.2012 78.92 69.54C80.25 63.31 84.92 58.96 91.74 57.67C94.8952 57.2796 98.0912 57.3667 101.22 57.9283C101.225 57.9292 101.23 57.9254 101.23 57.9203V57.9203ZM71.89 63.15V63.15C71.89 65.9777 69.5977 68.27 66.77 68.27H63.66C59.2417 68.27 55.66 71.8517 55.66 76.27V108.745C55.66 111.923 53.0834 114.5 49.905 114.5V114.5C46.7266 114.5 44.15 111.923 44.15 108.745V76.26C44.15 71.8418 40.5683 68.26 36.15 68.26H32.88C30.1186 68.26 27.88 66.0215 27.88 63.26V63.26C27.8558 62.4354 27.8523 61.6104 27.8695 60.7859C27.9062 59.0352 28.9456 58.0432 30.6966 58.0295C34.4516 58 41.7321 58 50 58H66.6797C69.5338 58 71.8568 60.2961 71.89 63.15V63.15Z" fill="black"/>
</svg>
