<svg width="24" height="24" viewBox="0 0 24 24" fill="none" xmlns="http://www.w3.org/2000/svg">
<g clip-path="url(#clip0_1_8513)">
<path d="M23.7101 16.2901L15.5401 8.12006C15.0756 7.65443 14.5239 7.285 13.9164 7.03294C13.309 6.78087 12.6578 6.65112 12.0001 6.65112C11.3424 6.65112 10.6912 6.78087 10.0838 7.03294C9.47631 7.285 8.92455 7.65443 8.46009 8.12006L0.290094 16.2901C0.10179 16.4784 -0.0039978 16.7338 -0.0039978 17.0001C-0.0039978 17.2664 0.10179 17.5218 0.290094 17.7101C0.478398 17.8984 0.733792 18.0042 1.00009 18.0042C1.2664 18.0042 1.52179 17.8984 1.71009 17.7101L9.88009 9.54006C10.4426 8.97826 11.2051 8.6627 12.0001 8.6627C12.7951 8.6627 13.5576 8.97826 14.1201 9.54006L22.2901 17.7101C22.3831 17.8038 22.4937 17.8782 22.6155 17.929C22.7374 17.9797 22.8681 18.0059 23.0001 18.0059C23.1321 18.0059 23.2628 17.9797 23.3847 17.929C23.5065 17.8782 23.6171 17.8038 23.7101 17.7101C23.8038 17.6171 23.8782 17.5065 23.929 17.3846C23.9798 17.2628 24.0059 17.1321 24.0059 17.0001C24.0059 16.868 23.9798 16.7373 23.929 16.6155C23.8782 16.4936 23.8038 16.383 23.7101 16.2901Z" fill="white"/>
</g>
<defs>
<clipPath id="clip0_1_8513">
<rect width="24" height="24" fill="white"/>
</clipPath>
</defs>
</svg>
